<?xml version="1.0" standalone="no"?><svg xmlns:xlink="http://www.w3.org/1999/xlink" xmlns="http://www.w3.org/2000/svg" viewBox="0 0 1000 437.50090035582065" preserveAspectRatio="xMaxYMax slice"><g transform="scale(0.7202846564962474)"><rect x="0" y="0" width="1388.3428571428572" height="607.4" fill="#ffffff"/><rect x="0" y="0" width="86.77" height="86.77" fill="#dff3f9"/><path d="M 0 86.77 A 86.77 86.77 0 0 0 86.77 0 L 0 0" fill="#9ea4fb"/><rect x="86.77" y="0" width="86.77" height="86.77" fill="#b7e4f1"/><path d="M 86.77 86.77 A 86.77 86.77 0 0 0 173.54 0 L 86.77 0" fill="#98d9eb"/><rect x="173.54285714285714" y="0" width="86.77142857142857" height="86.77142857142857" fill="#ffffff"/><rect x="173.54" y="0" width="43.39" height="43.39" fill="#e7e8fe"/><path d="M 173.54 0 A 43.39 43.39 0 0 1  216.93 43.39 L 173.54 0 A 43.39 43.39 0 0 0 216.93 43.39" fill="#93d8ea"/><rect x="216.93" y="0" width="43.39" height="43.39" fill="#a5deee"/><path d="M 216.93 0 A 43.39 43.39 0 0 1  260.32 43.39 L 216.93 0 A 43.39 43.39 0 0 0 260.32 43.39" fill="#dddffe"/><rect x="173.54" y="43.39" width="43.39" height="43.39" fill="#c8cbfd"/><path d="M 173.54 86.78 A 43.39 43.39 0 0 1  216.93 43.39 L 216.93 86.78" fill="#a0a6fb"/><rect x="216.93" y="43.39" width="43.39" height="43.39" fill="#9da4fb"/><path d="M 216.93 43.39 A 43.39 43.39 0 0 1 260.32 86.78 L 216.93 86.78" fill="#f2f3fe"/><rect x="260.3142857142857" y="0" width="86.77142857142857" height="86.77142857142857" fill="#ffffff"/><rect x="260.31" y="0" width="43.39" height="43.39" fill="#e1f4f9"/><path d="M 260.31 43.39 A 43.39 43.39 0 0 1  303.7 0 L 303.7 43.39" fill="#d7d9fd"/><rect x="303.7" y="0" width="43.39" height="43.39" fill="#dbddfd"/><path d="M 303.7 0 A 43.39 43.39 0 0 0 347.09 43.39 L 347.09 0" fill="#e3e5fe"/><rect x="260.31" y="43.39" width="43.39" height="43.39" fill="#89d4e8"/><path d="M 260.31 43.39 A 43.39 43.39 0 0 1 303.7 86.78 L 260.31 86.78" fill="#b5e4f1"/><rect x="303.7" y="43.39" width="43.39" height="43.39" fill="#99d9eb"/><path d="M 303.7 43.39 A 43.39 43.39 0 0 1  347.09 86.78 L 303.7 43.39 A 43.39 43.39 0 0 0 347.09 86.78" fill="#eff9fc"/><rect x="347.0857142857143" y="0" width="86.77142857142857" height="86.77142857142857" fill="#ffffff"/><rect x="347.09" y="0" width="43.39" height="43.39" fill="#a2dded"/><path d="M 347.09 0 A 43.39 43.39 0 0 1  390.47999999999996 43.39 L 347.09 0 A 43.39 43.39 0 0 0 390.47999999999996 43.39" fill="#fdfdff"/><rect x="390.47" y="0" width="43.39" height="43.39" fill="#d3d6fd"/><path d="M 390.47 43.39 A 43.39 43.39 0 0 0 433.86 0 L 390.47 0" fill="#b3e3f0"/><rect x="347.09" y="43.39" width="43.39" height="43.39" fill="#f1f2fe"/><path d="M 347.09 86.78 A 43.39 43.39 0 0 1  390.47999999999996 43.39 L 347.09 86.78 A 43.39 43.39 0 0 0 390.47999999999996 43.39" fill="#8890fa"/><rect x="390.47" y="43.39" width="43.39" height="43.39" fill="#b8e5f1"/><path d="M 390.47 86.78 A 43.39 43.39 0 0 1  433.86 43.39 L 390.47 86.78 A 43.39 43.39 0 0 0 433.86 43.39" fill="#a9affb"/><rect x="433.86" y="0" width="86.77" height="86.77" fill="#fcfefe"/><path d="M 433.86 86.77 A 86.77 86.77 0 0 0 520.63 0 L 433.86 0" fill="#f2fafd"/><rect x="520.63" y="0" width="86.77" height="86.77" fill="#90d6ea"/><path d="M 520.63 0 A 86.77 86.77 0 0 0 607.4 86.77 L 607.4 0" fill="#bde7f2"/><rect x="607.4" y="0" width="86.77" height="86.77" fill="#fbfbff"/><path d="M 607.4 0 A 86.77 86.77 0 0 1  694.17 86.77 L 607.4 0 A 86.77 86.77 0 0 0 694.17 86.77" fill="#eaebfe"/><rect x="694.17" y="0" width="86.77" height="86.77" fill="#e1e3fe"/><path d="M 694.17 86.77 A 86.77 86.77 0 0 0 780.9399999999999 0 L 694.17 0" fill="#98d9eb"/><rect x="780.9428571428572" y="0" width="86.77142857142857" height="86.77142857142857" fill="#ffffff"/><rect x="780.94" y="0" width="43.39" height="43.39" fill="#a6acfb"/><path d="M 780.94 0 A 43.39 43.39 0 0 1  824.33 43.39 L 780.94 0 A 43.39 43.39 0 0 0 824.33 43.39" fill="#bae6f2"/><rect x="824.33" y="0" width="43.39" height="43.39" fill="#b8e5f1"/><path d="M 824.33 0 A 43.39 43.39 0 0 1 867.72 43.39 L 824.33 43.39" fill="#b7bcfc"/><rect x="780.94" y="43.39" width="43.39" height="43.39" fill="#8088fa"/><path d="M 780.94 86.78 A 43.39 43.39 0 0 1  824.33 43.39 L 780.94 86.78 A 43.39 43.39 0 0 0 824.33 43.39" fill="#626cf8"/><rect x="824.33" y="43.39" width="43.39" height="43.39" fill="#7982f9"/><path d="M 824.33 86.78 A 43.39 43.39 0 0 0 867.72 43.39 L 824.33 43.39" fill="#a6acfb"/><rect x="867.71" y="0" width="86.77" height="86.77" fill="#edeefe"/><path d="M 867.71 86.77 A 86.77 86.77 0 0 0 954.48 0 L 867.71 0" fill="#cacdfd"/><rect x="954.4857142857143" y="0" width="86.77142857142857" height="86.77142857142857" fill="#ffffff"/><rect x="954.49" y="0" width="43.39" height="43.39" fill="#b5bafc"/><path d="M 954.49 43.39 A 43.39 43.39 0 0 0 997.88 0 L 954.49 0" fill="#a8dfee"/><rect x="997.87" y="0" width="43.39" height="43.39" fill="#7e87fa"/><path d="M 997.87 43.39 A 43.39 43.39 0 0 0 1041.26 0 L 997.87 0" fill="#8bd4e9"/><rect x="954.49" y="43.39" width="43.39" height="43.39" fill="#f0fafc"/><path d="M 954.49 86.78 A 43.39 43.39 0 0 1  997.88 43.39 L 997.88 86.78" fill="#a1dded"/><rect x="997.87" y="43.39" width="43.39" height="43.39" fill="#8a92fa"/><path d="M 997.87 43.39 A 43.39 43.39 0 0 1  1041.26 86.78 L 997.87 43.39 A 43.39 43.39 0 0 0 1041.26 86.78" fill="#c2e9f3"/><rect x="1041.26" y="0" width="86.77" height="86.77" fill="#75cce4"/><path d="M 1041.26 86.77 A 86.77 86.77 0 0 0 1128.03 0 L 1041.26 0" fill="#888ffa"/><rect x="1128.0285714285715" y="0" width="86.77142857142857" height="86.77142857142857" fill="#ffffff"/><rect x="1128.03" y="0" width="43.39" height="43.39" fill="#f0f1fe"/><path d="M 1128.03 43.39 A 43.39 43.39 0 0 1  1171.42 0 L 1128.03 43.39 A 43.39 43.39 0 0 0 1171.42 0" fill="#a1dced"/><rect x="1171.41" y="0" width="43.39" height="43.39" fill="#f9fdfe"/><path d="M 1171.41 43.39 A 43.39 43.39 0 0 1  1214.8000000000002 0 L 1171.41 43.39 A 43.39 43.39 0 0 0 1214.8000000000002 0" fill="#ecf8fb"/><rect x="1128.03" y="43.39" width="43.39" height="43.39" fill="#82d1e7"/><path d="M 1128.03 43.39 A 43.39 43.39 0 0 0 1171.42 86.78 L 1171.42 43.39" fill="#e8eafe"/><rect x="1171.41" y="43.39" width="43.39" height="43.39" fill="#949bfb"/><path d="M 1171.41 43.39 A 43.39 43.39 0 0 0 1214.8000000000002 86.78 L 1214.8000000000002 43.39" fill="#f3f4ff"/><rect x="1214.8" y="0" width="86.77142857142857" height="86.77142857142857" fill="#ffffff"/><rect x="1214.8" y="0" width="43.39" height="43.39" fill="#97d9eb"/><path d="M 1214.8 0 A 43.39 43.39 0 0 0 1258.19 43.39 L 1258.19 0" fill="#bce6f2"/><rect x="1258.19" y="0" width="43.39" height="43.39" fill="#c3e9f3"/><path d="M 1258.19 0 A 43.39 43.39 0 0 0 1301.5800000000002 43.39 L 1301.5800000000002 0" fill="#cfedf6"/><rect x="1214.8" y="43.39" width="43.39" height="43.39" fill="#7fd0e6"/><path d="M 1214.8 43.39 A 43.39 43.39 0 0 1 1258.19 86.78 L 1214.8 86.78" fill="#6c75f9"/><rect x="1258.19" y="43.39" width="43.39" height="43.39" fill="#a1dced"/><path d="M 1258.19 43.39 A 43.39 43.39 0 0 0 1301.5800000000002 86.78 L 1301.5800000000002 43.39" fill="#f2f3fe"/><rect x="1301.57" y="0" width="86.77" height="86.77" fill="#d6d8fd"/><path d="M 1301.57 86.77 A 86.77 86.77 0 0 0 1388.34 0 L 1301.57 0" fill="#7e86fa"/><rect x="0" y="86.77142857142857" width="86.77142857142857" height="86.77142857142857" fill="#ffffff"/><rect x="0" y="86.77" width="43.39" height="43.39" fill="#ceedf6"/><path d="M 0 86.77 A 43.39 43.39 0 0 1  43.39 130.16 L 0 86.77 A 43.39 43.39 0 0 0 43.39 130.16" fill="#a2a8fb"/><rect x="43.39" y="86.77" width="43.39" height="43.39" fill="#cbcefd"/><path d="M 43.39 86.77 A 43.39 43.39 0 0 1 86.78 130.16 L 43.39 130.16" fill="#f9fdfe"/><rect x="0" y="130.16" width="43.39" height="43.39" fill="#bbc0fc"/><path d="M 0 130.16 A 43.39 43.39 0 0 1  43.39 173.55 L 0 130.16 A 43.39 43.39 0 0 0 43.39 173.55" fill="#d4d6fd"/><rect x="43.39" y="130.16" width="43.39" height="43.39" fill="#5b65f8"/><path d="M 43.39 173.55 A 43.39 43.39 0 0 0 86.78 130.16 L 43.39 130.16" fill="#6771f9"/><rect x="86.77142857142857" y="86.77142857142857" width="86.77142857142857" height="86.77142857142857" fill="#ffffff"/><rect x="86.77" y="86.77" width="43.39" height="43.39" fill="#f3f4ff"/><path d="M 86.77 86.77 A 43.39 43.39 0 0 0 130.16 130.16 L 130.16 86.77" fill="#e2f4f9"/><rect x="130.16" y="86.77" width="43.39" height="43.39" fill="#caebf5"/><path d="M 130.16 130.16 A 43.39 43.39 0 0 0 173.55 86.77 L 130.16 86.77" fill="#989efb"/><rect x="86.77" y="130.16" width="43.39" height="43.39" fill="#dbf2f8"/><path d="M 86.77 130.16 A 43.39 43.39 0 0 1  130.16 173.55 L 86.77 130.16 A 43.39 43.39 0 0 0 130.16 173.55" fill="#7ed0e6"/><rect x="130.16" y="130.16" width="43.39" height="43.39" fill="#acb1fc"/><path d="M 130.16 173.55 A 43.39 43.39 0 0 1  173.55 130.16 L 130.16 173.55 A 43.39 43.39 0 0 0 173.55 130.16" fill="#fbfbff"/><rect x="173.54" y="86.77" width="86.77" height="86.77" fill="#98d9eb"/><path d="M 173.54 173.54 A 86.77 86.77 0 0 0 260.31 86.77 L 173.54 86.77" fill="#dcf2f8"/><rect x="260.3142857142857" y="86.77142857142857" width="86.77142857142857" height="86.77142857142857" fill="#ffffff"/><rect x="260.31" y="86.77" width="43.39" height="43.39" fill="#75cce4"/><path d="M 260.31 86.77 A 43.39 43.39 0 0 1 303.7 130.16 L 260.31 130.16" fill="#ceedf6"/><rect x="303.7" y="86.77" width="43.39" height="43.39" fill="#ddf3f8"/><path d="M 303.7 130.16 A 43.39 43.39 0 0 0 347.09 86.77 L 303.7 86.77" fill="#f7f7ff"/><rect x="260.31" y="130.16" width="43.39" height="43.39" fill="#cacefd"/><path d="M 260.31 130.16 A 43.39 43.39 0 0 0 303.7 173.55 L 303.7 130.16" fill="#97d9eb"/><rect x="303.7" y="130.16" width="43.39" height="43.39" fill="#707af9"/><path d="M 303.7 130.16 A 43.39 43.39 0 0 0 347.09 173.55 L 347.09 130.16" fill="#5e68f8"/><rect x="347.09" y="86.77" width="86.77" height="86.77" fill="#a3a9fb"/><path d="M 347.09 173.54 A 86.77 86.77 0 0 0 433.85999999999996 86.77 L 347.09 86.77" fill="#a1a7fb"/><rect x="433.86" y="86.77" width="86.77" height="86.77" fill="#6bc9e2"/><path d="M 433.86 173.54 A 86.77 86.77 0 0 1  520.63 86.77 L 433.86 173.54 A 86.77 86.77 0 0 0 520.63 86.77" fill="#737cf9"/><rect x="520.63" y="86.77" width="86.77" height="86.77" fill="#626cf8"/><path d="M 520.63 86.77 A 86.77 86.77 0 0 1  607.4 173.54 L 520.63 86.77 A 86.77 86.77 0 0 0 607.4 173.54" fill="#878ffa"/><rect x="607.4" y="86.77" width="86.77" height="86.77" fill="#eaebfe"/><path d="M 607.4 86.77 A 86.77 86.77 0 0 0 694.17 173.54 L 694.17 86.77" fill="#b4e4f1"/><rect x="694.17" y="86.77" width="86.77" height="86.77" fill="#6872f9"/><path d="M 694.17 86.77 A 86.77 86.77 0 0 1  780.9399999999999 173.54 L 694.17 86.77 A 86.77 86.77 0 0 0 780.9399999999999 173.54" fill="#a5deee"/><rect x="780.94" y="86.77" width="86.77" height="86.77" fill="#aee1ef"/><path d="M 780.94 86.77 A 86.77 86.77 0 0 1  867.71 173.54 L 780.94 86.77 A 86.77 86.77 0 0 0 867.71 173.54" fill="#646ef9"/><rect x="867.7142857142858" y="86.77142857142857" width="86.77142857142857" height="86.77142857142857" fill="#ffffff"/><rect x="867.71" y="86.77" width="43.39" height="43.39" fill="#b6e4f1"/><path d="M 867.71 130.16 A 43.39 43.39 0 0 1  911.1 86.77 L 867.71 130.16 A 43.39 43.39 0 0 0 911.1 86.77" fill="#d2eef6"/><rect x="911.1" y="86.77" width="43.39" height="43.39" fill="#5964f8"/><path d="M 911.1 86.77 A 43.39 43.39 0 0 1  954.49 130.16 L 911.1 86.77 A 43.39 43.39 0 0 0 954.49 130.16" fill="#5a65f8"/><rect x="867.71" y="130.16" width="43.39" height="43.39" fill="#f8fdfe"/><path d="M 867.71 130.16 A 43.39 43.39 0 0 1  911.1 173.55 L 867.71 130.16 A 43.39 43.39 0 0 0 911.1 173.55" fill="#f0f9fc"/><rect x="911.1" y="130.16" width="43.39" height="43.39" fill="#c1e8f3"/><path d="M 911.1 130.16 A 43.39 43.39 0 0 0 954.49 173.55 L 954.49 130.16" fill="#6e77f9"/><rect x="954.49" y="86.77" width="86.77" height="86.77" fill="#78cde5"/><path d="M 954.49 86.77 A 86.77 86.77 0 0 0 1041.26 173.54 L 1041.26 86.77" fill="#71cbe4"/><rect x="1041.26" y="86.77" width="86.77" height="86.77" fill="#c7ebf4"/><path d="M 1041.26 86.77 A 86.77 86.77 0 0 1 1128.03 173.54 L 1041.26 173.54" fill="#878efa"/><rect x="1128.0285714285715" y="86.77142857142857" width="86.77142857142857" height="86.77142857142857" fill="#ffffff"/><rect x="1128.03" y="86.77" width="43.39" height="43.39" fill="#a0a6fb"/><path d="M 1128.03 86.77 A 43.39 43.39 0 0 1 1171.42 130.16 L 1128.03 130.16" fill="#cdd0fd"/><rect x="1171.41" y="86.77" width="43.39" height="43.39" fill="#b1e2f0"/><path d="M 1171.41 86.77 A 43.39 43.39 0 0 1 1214.8000000000002 130.16 L 1171.41 130.16" fill="#6f78f9"/><rect x="1128.03" y="130.16" width="43.39" height="43.39" fill="#bee7f2"/><path d="M 1128.03 173.55 A 43.39 43.39 0 0 1  1171.42 130.16 L 1128.03 173.55 A 43.39 43.39 0 0 0 1171.42 130.16" fill="#6bc9e2"/><rect x="1171.41" y="130.16" width="43.39" height="43.39" fill="#b4e3f0"/><path d="M 1171.41 173.55 A 43.39 43.39 0 0 0 1214.8000000000002 130.16 L 1171.41 130.16" fill="#9bdaec"/><rect x="1214.8" y="86.77" width="86.77" height="86.77" fill="#8ad4e8"/><path d="M 1214.8 173.54 A 86.77 86.77 0 0 1  1301.57 86.77 L 1301.57 173.54" fill="#99daeb"/><rect x="1301.5714285714287" y="86.77142857142857" width="86.77142857142857" height="86.77142857142857" fill="#ffffff"/><rect x="1301.57" y="86.77" width="43.39" height="43.39" fill="#b7e5f1"/><path d="M 1301.57 130.16 A 43.39 43.39 0 0 1  1344.96 86.77 L 1344.96 130.16" fill="#a1a7fb"/><rect x="1344.96" y="86.77" width="43.39" height="43.39" fill="#8ad4e8"/><path d="M 1344.96 86.77 A 43.39 43.39 0 0 0 1388.3500000000001 130.16 L 1388.3500000000001 86.77" fill="#ccecf5"/><rect x="1301.57" y="130.16" width="43.39" height="43.39" fill="#8d94fa"/><path d="M 1301.57 173.55 A 43.39 43.39 0 0 0 1344.96 130.16 L 1301.57 130.16" fill="#7780f9"/><rect x="1344.96" y="130.16" width="43.39" height="43.39" fill="#daf1f8"/><path d="M 1344.96 173.55 A 43.39 43.39 0 0 1  1388.3500000000001 130.16 L 1344.96 173.55 A 43.39 43.39 0 0 0 1388.3500000000001 130.16" fill="#a9e0ee"/><rect x="0" y="173.54285714285714" width="86.77142857142857" height="86.77142857142857" fill="#ffffff"/><rect x="0" y="173.54" width="43.39" height="43.39" fill="#8cd5e9"/><path d="M 0 216.93 A 43.39 43.39 0 0 0 43.39 173.54 L 0 173.54" fill="#9fa5fb"/><rect x="43.39" y="173.54" width="43.39" height="43.39" fill="#cacefd"/><path d="M 43.39 216.93 A 43.39 43.39 0 0 1  86.78 173.54 L 86.78 216.93" fill="#d1d4fd"/><rect x="0" y="216.93" width="43.39" height="43.39" fill="#f4f5ff"/><path d="M 0 260.32 A 43.39 43.39 0 0 1  43.39 216.93 L 0 260.32 A 43.39 43.39 0 0 0 43.39 216.93" fill="#9edbec"/><rect x="43.39" y="216.93" width="43.39" height="43.39" fill="#f4f4ff"/><path d="M 43.39 260.32 A 43.39 43.39 0 0 1  86.78 216.93 L 86.78 260.32" fill="#6fcae3"/><rect x="86.77" y="173.54" width="86.77" height="86.77" fill="#b5bafc"/><path d="M 86.77 260.31 A 86.77 86.77 0 0 1  173.54 173.54 L 86.77 260.31 A 86.77 86.77 0 0 0 173.54 173.54" fill="#95d8ea"/><rect x="173.54" y="173.54" width="86.77" height="86.77" fill="#b4b9fc"/><path d="M 173.54 173.54 A 86.77 86.77 0 0 0 260.31 260.31 L 260.31 173.54" fill="#d0eef6"/><rect x="260.3142857142857" y="173.54285714285714" width="86.77142857142857" height="86.77142857142857" fill="#ffffff"/><rect x="260.31" y="173.54" width="43.39" height="43.39" fill="#75cce4"/><path d="M 260.31 216.93 A 43.39 43.39 0 0 1  303.7 173.54 L 260.31 216.93 A 43.39 43.39 0 0 0 303.7 173.54" fill="#e0e2fe"/><rect x="303.7" y="173.54" width="43.39" height="43.39" fill="#a2dded"/><path d="M 303.7 173.54 A 43.39 43.39 0 0 0 347.09 216.93 L 347.09 173.54" fill="#8d94fa"/><rect x="260.31" y="216.93" width="43.39" height="43.39" fill="#ace0ef"/><path d="M 260.31 260.32 A 43.39 43.39 0 0 1  303.7 216.93 L 303.7 260.32" fill="#858dfa"/><rect x="303.7" y="216.93" width="43.39" height="43.39" fill="#cccffd"/><path d="M 303.7 216.93 A 43.39 43.39 0 0 1  347.09 260.32 L 303.7 216.93 A 43.39 43.39 0 0 0 347.09 260.32" fill="#f2f3fe"/><rect x="347.0857142857143" y="173.54285714285714" width="86.77142857142857" height="86.77142857142857" fill="#ffffff"/><rect x="347.09" y="173.54" width="43.39" height="43.39" fill="#85d2e7"/><path d="M 347.09 173.54 A 43.39 43.39 0 0 1 390.47999999999996 216.93 L 347.09 216.93" fill="#bce7f2"/><rect x="390.47" y="173.54" width="43.39" height="43.39" fill="#dcf2f8"/><path d="M 390.47 216.93 A 43.39 43.39 0 0 0 433.86 173.54 L 390.47 173.54" fill="#9299fa"/><rect x="347.09" y="216.93" width="43.39" height="43.39" fill="#77cde5"/><path d="M 347.09 260.32 A 43.39 43.39 0 0 1  390.47999999999996 216.93 L 390.47999999999996 260.32" fill="#9bdaec"/><rect x="390.47" y="216.93" width="43.39" height="43.39" fill="#9da3fb"/><path d="M 390.47 260.32 A 43.39 43.39 0 0 1  433.86 216.93 L 390.47 260.32 A 43.39 43.39 0 0 0 433.86 216.93" fill="#a7dfee"/><rect x="433.86" y="173.54" width="86.77" height="86.77" fill="#8e96fa"/><path d="M 433.86 173.54 A 86.77 86.77 0 0 1  520.63 260.31 L 433.86 173.54 A 86.77 86.77 0 0 0 520.63 260.31" fill="#a8dfee"/><rect x="520.63" y="173.54" width="86.77" height="86.77" fill="#b0b5fc"/><path d="M 520.63 260.31 A 86.77 86.77 0 0 1  607.4 173.54 L 520.63 260.31 A 86.77 86.77 0 0 0 607.4 173.54" fill="#5963f8"/><rect x="607.4" y="173.54" width="86.77" height="86.77" fill="#f2f2fe"/><path d="M 607.4 173.54 A 86.77 86.77 0 0 1 694.17 260.31 L 607.4 260.31" fill="#d9dbfd"/><rect x="694.1714285714286" y="173.54285714285714" width="86.77142857142857" height="86.77142857142857" fill="#ffffff"/><rect x="694.17" y="173.54" width="43.39" height="43.39" fill="#e7f6fa"/><path d="M 694.17 216.93 A 43.39 43.39 0 0 0 737.56 173.54 L 694.17 173.54" fill="#ace0ef"/><rect x="737.56" y="173.54" width="43.39" height="43.39" fill="#6ac8e2"/><path d="M 737.56 173.54 A 43.39 43.39 0 0 0 780.9499999999999 216.93 L 780.9499999999999 173.54" fill="#dbddfe"/><rect x="694.17" y="216.93" width="43.39" height="43.39" fill="#dbf2f8"/><path d="M 694.17 260.32 A 43.39 43.39 0 0 0 737.56 216.93 L 694.17 216.93" fill="#7ccfe6"/><rect x="737.56" y="216.93" width="43.39" height="43.39" fill="#727cf9"/><path d="M 737.56 260.32 A 43.39 43.39 0 0 1  780.9499999999999 216.93 L 737.56 260.32 A 43.39 43.39 0 0 0 780.9499999999999 216.93" fill="#75cce4"/><rect x="780.94" y="173.54" width="86.77" height="86.77" fill="#6ac8e2"/><path d="M 780.94 173.54 A 86.77 86.77 0 0 1 867.71 260.31 L 780.94 260.31" fill="#f8fdfe"/><rect x="867.71" y="173.54" width="86.77" height="86.77" fill="#a0a6fb"/><path d="M 867.71 260.31 A 86.77 86.77 0 0 1  954.48 173.54 L 954.48 260.31" fill="#a1dded"/><rect x="954.4857142857143" y="173.54285714285714" width="86.77142857142857" height="86.77142857142857" fill="#ffffff"/><rect x="954.49" y="173.54" width="43.39" height="43.39" fill="#7d85fa"/><path d="M 954.49 173.54 A 43.39 43.39 0 0 1 997.88 216.93 L 954.49 216.93" fill="#aee1ef"/><rect x="997.87" y="173.54" width="43.39" height="43.39" fill="#8089fa"/><path d="M 997.87 173.54 A 43.39 43.39 0 0 0 1041.26 216.93 L 1041.26 173.54" fill="#9fdcec"/><rect x="954.49" y="216.93" width="43.39" height="43.39" fill="#bae6f2"/><path d="M 954.49 216.93 A 43.39 43.39 0 0 0 997.88 260.32 L 997.88 216.93" fill="#d4d7fd"/><rect x="997.87" y="216.93" width="43.39" height="43.39" fill="#a0dced"/><path d="M 997.87 260.32 A 43.39 43.39 0 0 0 1041.26 216.93 L 997.87 216.93" fill="#8991fa"/><rect x="1041.2571428571428" y="173.54285714285714" width="86.77142857142857" height="86.77142857142857" fill="#ffffff"/><rect x="1041.26" y="173.54" width="43.39" height="43.39" fill="#cacdfd"/><path d="M 1041.26 173.54 A 43.39 43.39 0 0 1 1084.65 216.93 L 1041.26 216.93" fill="#9ddbec"/><rect x="1084.64" y="173.54" width="43.39" height="43.39" fill="#8ad4e8"/><path d="M 1084.64 173.54 A 43.39 43.39 0 0 1 1128.0300000000002 216.93 L 1084.64 216.93" fill="#b8e5f1"/><rect x="1041.26" y="216.93" width="43.39" height="43.39" fill="#c8cbfd"/><path d="M 1041.26 260.32 A 43.39 43.39 0 0 1  1084.65 216.93 L 1084.65 260.32" fill="#828afa"/><rect x="1084.64" y="216.93" width="43.39" height="43.39" fill="#d4eff7"/><path d="M 1084.64 260.32 A 43.39 43.39 0 0 1  1128.0300000000002 216.93 L 1084.64 260.32 A 43.39 43.39 0 0 0 1128.0300000000002 216.93" fill="#7079f9"/><rect x="1128.03" y="173.54" width="86.77" height="86.77" fill="#bec2fc"/><path d="M 1128.03 173.54 A 86.77 86.77 0 0 0 1214.8 260.31 L 1214.8 173.54" fill="#6670f9"/><rect x="1214.8" y="173.54285714285714" width="86.77142857142857" height="86.77142857142857" fill="#ffffff"/><rect x="1214.8" y="173.54" width="43.39" height="43.39" fill="#b9e5f2"/><path d="M 1214.8 173.54 A 43.39 43.39 0 0 0 1258.19 216.93 L 1258.19 173.54" fill="#dee1fe"/><rect x="1258.19" y="173.54" width="43.39" height="43.39" fill="#5f69f8"/><path d="M 1258.19 216.93 A 43.39 43.39 0 0 0 1301.5800000000002 173.54 L 1258.19 173.54" fill="#ced1fd"/><rect x="1214.8" y="216.93" width="43.39" height="43.39" fill="#e1e3fe"/><path d="M 1214.8 260.32 A 43.39 43.39 0 0 0 1258.19 216.93 L 1214.8 216.93" fill="#f7fcfe"/><rect x="1258.19" y="216.93" width="43.39" height="43.39" fill="#8cd5e9"/><path d="M 1258.19 260.32 A 43.39 43.39 0 0 1  1301.5800000000002 216.93 L 1258.19 260.32 A 43.39 43.39 0 0 0 1301.5800000000002 216.93" fill="#afe2f0"/><rect x="1301.5714285714287" y="173.54285714285714" width="86.77142857142857" height="86.77142857142857" fill="#ffffff"/><rect x="1301.57" y="173.54" width="43.39" height="43.39" fill="#a6deee"/><path d="M 1301.57 173.54 A 43.39 43.39 0 0 1 1344.96 216.93 L 1301.57 216.93" fill="#6cc9e3"/><rect x="1344.96" y="173.54" width="43.39" height="43.39" fill="#a2a8fb"/><path d="M 1344.96 173.54 A 43.39 43.39 0 0 0 1388.3500000000001 216.93 L 1388.3500000000001 173.54" fill="#cfd2fd"/><rect x="1301.57" y="216.93" width="43.39" height="43.39" fill="#f2f3fe"/><path d="M 1301.57 216.93 A 43.39 43.39 0 0 0 1344.96 260.32 L 1344.96 216.93" fill="#8ad4e8"/><rect x="1344.96" y="216.93" width="43.39" height="43.39" fill="#bee7f2"/><path d="M 1344.96 260.32 A 43.39 43.39 0 0 1  1388.3500000000001 216.93 L 1344.96 260.32 A 43.39 43.39 0 0 0 1388.3500000000001 216.93" fill="#9edcec"/><rect x="0" y="260.31" width="86.77" height="86.77" fill="#cbecf5"/><path d="M 0 260.31 A 86.77 86.77 0 0 1  86.77 347.08 L 0 260.31 A 86.77 86.77 0 0 0 86.77 347.08" fill="#7acee5"/><rect x="86.77" y="260.31" width="86.77" height="86.77" fill="#88d3e8"/><path d="M 86.77 347.08 A 86.77 86.77 0 0 1  173.54 260.31 L 173.54 347.08" fill="#d1eef6"/><rect x="173.54285714285714" y="260.3142857142857" width="86.77142857142857" height="86.77142857142857" fill="#ffffff"/><rect x="173.54" y="260.31" width="43.39" height="43.39" fill="#f7fcfe"/><path d="M 173.54 303.7 A 43.39 43.39 0 0 1  216.93 260.31 L 216.93 303.7" fill="#99daeb"/><rect x="216.93" y="260.31" width="43.39" height="43.39" fill="#bfe7f3"/><path d="M 216.93 260.31 A 43.39 43.39 0 0 0 260.32 303.7 L 260.32 260.31" fill="#f0f1fe"/><rect x="173.54" y="303.7" width="43.39" height="43.39" fill="#e5f5fa"/><path d="M 173.54 303.7 A 43.39 43.39 0 0 0 216.93 347.09 L 216.93 303.7" fill="#7780f9"/><rect x="216.93" y="303.7" width="43.39" height="43.39" fill="#c7eaf4"/><path d="M 216.93 303.7 A 43.39 43.39 0 0 0 260.32 347.09 L 260.32 303.7" fill="#e0f4f9"/><rect x="260.31" y="260.31" width="86.77" height="86.77" fill="#abb1fc"/><path d="M 260.31 260.31 A 86.77 86.77 0 0 1 347.08 347.08 L 260.31 347.08" fill="#5b65f8"/><rect x="347.09" y="260.31" width="86.77" height="86.77" fill="#7a83fa"/><path d="M 347.09 347.08 A 86.77 86.77 0 0 1  433.85999999999996 260.31 L 433.85999999999996 347.08" fill="#b7bcfc"/><rect x="433.86" y="260.31" width="86.77" height="86.77" fill="#b0b5fc"/><path d="M 433.86 347.08 A 86.77 86.77 0 0 1  520.63 260.31 L 520.63 347.08" fill="#fdfdff"/><rect x="520.63" y="260.31" width="86.77" height="86.77" fill="#a4deed"/><path d="M 520.63 347.08 A 86.77 86.77 0 0 1  607.4 260.31 L 520.63 347.08 A 86.77 86.77 0 0 0 607.4 260.31" fill="#5661f8"/><rect x="607.4" y="260.31" width="86.77" height="86.77" fill="#90d6e9"/><path d="M 607.4 347.08 A 86.77 86.77 0 0 0 694.17 260.31 L 607.4 260.31" fill="#e4e6fe"/><rect x="694.1714285714286" y="260.3142857142857" width="86.77142857142857" height="86.77142857142857" fill="#ffffff"/><rect x="694.17" y="260.31" width="43.39" height="43.39" fill="#d0d3fd"/><path d="M 694.17 303.7 A 43.39 43.39 0 0 0 737.56 260.31 L 694.17 260.31" fill="#bbbffc"/><rect x="737.56" y="260.31" width="43.39" height="43.39" fill="#aae0ee"/><path d="M 737.56 303.7 A 43.39 43.39 0 0 1  780.9499999999999 260.31 L 737.56 303.7 A 43.39 43.39 0 0 0 780.9499999999999 260.31" fill="#ade1ef"/><rect x="694.17" y="303.7" width="43.39" height="43.39" fill="#d9dbfd"/><path d="M 694.17 303.7 A 43.39 43.39 0 0 1 737.56 347.09 L 694.17 347.09" fill="#e5f5fa"/><rect x="737.56" y="303.7" width="43.39" height="43.39" fill="#959bfb"/><path d="M 737.56 303.7 A 43.39 43.39 0 0 1 780.9499999999999 347.09 L 737.56 347.09" fill="#d4d7fd"/><rect x="780.94" y="260.31" width="86.77" height="86.77" fill="#bdc1fc"/><path d="M 780.94 260.31 A 86.77 86.77 0 0 0 867.71 347.08 L 867.71 260.31" fill="#abb0fc"/><rect x="867.71" y="260.31" width="86.77" height="86.77" fill="#bbbffc"/><path d="M 867.71 347.08 A 86.77 86.77 0 0 0 954.48 260.31 L 867.71 260.31" fill="#6fcae3"/><rect x="954.4857142857143" y="260.3142857142857" width="86.77142857142857" height="86.77142857142857" fill="#ffffff"/><rect x="954.49" y="260.31" width="43.39" height="43.39" fill="#6871f9"/><path d="M 954.49 260.31 A 43.39 43.39 0 0 1  997.88 303.7 L 954.49 260.31 A 43.39 43.39 0 0 0 997.88 303.7" fill="#f2fafc"/><rect x="997.87" y="260.31" width="43.39" height="43.39" fill="#f1f2fe"/><path d="M 997.87 303.7 A 43.39 43.39 0 0 1  1041.26 260.31 L 1041.26 303.7" fill="#989ffb"/><rect x="954.49" y="303.7" width="43.39" height="43.39" fill="#ecedfe"/><path d="M 954.49 303.7 A 43.39 43.39 0 0 1  997.88 347.09 L 954.49 303.7 A 43.39 43.39 0 0 0 997.88 347.09" fill="#9ea5fb"/><rect x="997.87" y="303.7" width="43.39" height="43.39" fill="#e7f6fa"/><path d="M 997.87 347.09 A 43.39 43.39 0 0 1  1041.26 303.7 L 1041.26 347.09" fill="#8f96fa"/><rect x="1041.26" y="260.31" width="86.77" height="86.77" fill="#d2d5fd"/><path d="M 1041.26 260.31 A 86.77 86.77 0 0 1 1128.03 347.08 L 1041.26 347.08" fill="#c1e8f3"/><rect x="1128.0285714285715" y="260.3142857142857" width="86.77142857142857" height="86.77142857142857" fill="#ffffff"/><rect x="1128.03" y="260.31" width="43.39" height="43.39" fill="#bec3fc"/><path d="M 1128.03 303.7 A 43.39 43.39 0 0 1  1171.42 260.31 L 1128.03 303.7 A 43.39 43.39 0 0 0 1171.42 260.31" fill="#7780f9"/><rect x="1171.41" y="260.31" width="43.39" height="43.39" fill="#6670f9"/><path d="M 1171.41 303.7 A 43.39 43.39 0 0 1  1214.8000000000002 260.31 L 1171.41 303.7 A 43.39 43.39 0 0 0 1214.8000000000002 260.31" fill="#9ca2fb"/><rect x="1128.03" y="303.7" width="43.39" height="43.39" fill="#656ff9"/><path d="M 1128.03 347.09 A 43.39 43.39 0 0 1  1171.42 303.7 L 1171.42 347.09" fill="#daf2f8"/><rect x="1171.41" y="303.7" width="43.39" height="43.39" fill="#97d9eb"/><path d="M 1171.41 347.09 A 43.39 43.39 0 0 1  1214.8000000000002 303.7 L 1214.8000000000002 347.09" fill="#b5e4f1"/><rect x="1214.8" y="260.3142857142857" width="86.77142857142857" height="86.77142857142857" fill="#ffffff"/><rect x="1214.8" y="260.31" width="43.39" height="43.39" fill="#6fcae3"/><path d="M 1214.8 303.7 A 43.39 43.39 0 0 1  1258.19 260.31 L 1258.19 303.7" fill="#6ecae3"/><rect x="1258.19" y="260.31" width="43.39" height="43.39" fill="#6c76f9"/><path d="M 1258.19 260.31 A 43.39 43.39 0 0 1  1301.5800000000002 303.7 L 1258.19 260.31 A 43.39 43.39 0 0 0 1301.5800000000002 303.7" fill="#d0d4fd"/><rect x="1214.8" y="303.7" width="43.39" height="43.39" fill="#f9fdfe"/><path d="M 1214.8 347.09 A 43.39 43.39 0 0 0 1258.19 303.7 L 1214.8 303.7" fill="#e9ebfe"/><rect x="1258.19" y="303.7" width="43.39" height="43.39" fill="#7b83fa"/><path d="M 1258.19 347.09 A 43.39 43.39 0 0 1  1301.5800000000002 303.7 L 1258.19 347.09 A 43.39 43.39 0 0 0 1301.5800000000002 303.7" fill="#dff3f9"/><rect x="1301.57" y="260.31" width="86.77" height="86.77" fill="#8ed6e9"/><path d="M 1301.57 260.31 A 86.77 86.77 0 0 0 1388.34 347.08 L 1388.34 260.31" fill="#bce6f2"/><rect x="0" y="347.09" width="86.77" height="86.77" fill="#b4b9fc"/><path d="M 0 433.85999999999996 A 86.77 86.77 0 0 1  86.77 347.09 L 86.77 433.85999999999996" fill="#c8cbfd"/><rect x="86.77" y="347.09" width="86.77" height="86.77" fill="#a1dded"/><path d="M 86.77 347.09 A 86.77 86.77 0 0 1  173.54 433.85999999999996 L 86.77 347.09 A 86.77 86.77 0 0 0 173.54 433.85999999999996" fill="#c4e9f4"/><rect x="173.54285714285714" y="347.0857142857143" width="86.77142857142857" height="86.77142857142857" fill="#ffffff"/><rect x="173.54" y="347.09" width="43.39" height="43.39" fill="#82d1e7"/><path d="M 173.54 390.47999999999996 A 43.39 43.39 0 0 1  216.93 347.09 L 216.93 390.47999999999996" fill="#70cbe3"/><rect x="216.93" y="347.09" width="43.39" height="43.39" fill="#f4f5ff"/><path d="M 216.93 347.09 A 43.39 43.39 0 0 1 260.32 390.47999999999996 L 216.93 390.47999999999996" fill="#767ff9"/><rect x="173.54" y="390.47" width="43.39" height="43.39" fill="#7881f9"/><path d="M 173.54 433.86 A 43.39 43.39 0 0 0 216.93 390.47 L 173.54 390.47" fill="#9198fa"/><rect x="216.93" y="390.47" width="43.39" height="43.39" fill="#c1e8f3"/><path d="M 216.93 390.47 A 43.39 43.39 0 0 1  260.32 433.86 L 216.93 390.47 A 43.39 43.39 0 0 0 260.32 433.86" fill="#b0b6fc"/><rect x="260.31" y="347.09" width="86.77" height="86.77" fill="#ceedf6"/><path d="M 260.31 433.85999999999996 A 86.77 86.77 0 0 1  347.08 347.09 L 347.08 433.85999999999996" fill="#a1a7fb"/><rect x="347.09" y="347.09" width="86.77" height="86.77" fill="#a8dfee"/><path d="M 347.09 433.85999999999996 A 86.77 86.77 0 0 0 433.85999999999996 347.09 L 347.09 347.09" fill="#9adaec"/><rect x="433.86" y="347.09" width="86.77" height="86.77" fill="#9da3fb"/><path d="M 433.86 433.85999999999996 A 86.77 86.77 0 0 1  520.63 347.09 L 520.63 433.85999999999996" fill="#94d8ea"/><rect x="520.63" y="347.09" width="86.77" height="86.77" fill="#aee1ef"/><path d="M 520.63 347.09 A 86.77 86.77 0 0 0 607.4 433.85999999999996 L 607.4 347.09" fill="#9fdcec"/><rect x="607.4" y="347.09" width="86.77" height="86.77" fill="#cccffd"/><path d="M 607.4 433.85999999999996 A 86.77 86.77 0 0 1  694.17 347.09 L 607.4 433.85999999999996 A 86.77 86.77 0 0 0 694.17 347.09" fill="#e6f6fa"/><rect x="694.17" y="347.09" width="86.77" height="86.77" fill="#74cce4"/><path d="M 694.17 433.85999999999996 A 86.77 86.77 0 0 0 780.9399999999999 347.09 L 694.17 347.09" fill="#c7eaf4"/><rect x="780.9428571428572" y="347.0857142857143" width="86.77142857142857" height="86.77142857142857" fill="#ffffff"/><rect x="780.94" y="347.09" width="43.39" height="43.39" fill="#e1e3fe"/><path d="M 780.94 347.09 A 43.39 43.39 0 0 1  824.33 390.47999999999996 L 780.94 347.09 A 43.39 43.39 0 0 0 824.33 390.47999999999996" fill="#abe0ef"/><rect x="824.33" y="347.09" width="43.39" height="43.39" fill="#d9dbfd"/><path d="M 824.33 347.09 A 43.39 43.39 0 0 0 867.72 390.47999999999996 L 867.72 347.09" fill="#ace1ef"/><rect x="780.94" y="390.47" width="43.39" height="43.39" fill="#b9e5f1"/><path d="M 780.94 390.47 A 43.39 43.39 0 0 0 824.33 433.86 L 824.33 390.47" fill="#6cc9e3"/><rect x="824.33" y="390.47" width="43.39" height="43.39" fill="#c6cafd"/><path d="M 824.33 433.86 A 43.39 43.39 0 0 0 867.72 390.47 L 824.33 390.47" fill="#7f88fa"/><rect x="867.7142857142858" y="347.0857142857143" width="86.77142857142857" height="86.77142857142857" fill="#ffffff"/><rect x="867.71" y="347.09" width="43.39" height="43.39" fill="#e1f4f9"/><path d="M 867.71 390.47999999999996 A 43.39 43.39 0 0 1  911.1 347.09 L 867.71 390.47999999999996 A 43.39 43.39 0 0 0 911.1 347.09" fill="#d1eef6"/><rect x="911.1" y="347.09" width="43.39" height="43.39" fill="#8bd4e9"/><path d="M 911.1 390.47999999999996 A 43.39 43.39 0 0 1  954.49 347.09 L 911.1 390.47999999999996 A 43.39 43.39 0 0 0 954.49 347.09" fill="#606bf8"/><rect x="867.71" y="390.47" width="43.39" height="43.39" fill="#f6f6ff"/><path d="M 867.71 390.47 A 43.39 43.39 0 0 1 911.1 433.86 L 867.71 433.86" fill="#f4f5ff"/><rect x="911.1" y="390.47" width="43.39" height="43.39" fill="#e0e2fe"/><path d="M 911.1 390.47 A 43.39 43.39 0 0 1  954.49 433.86 L 911.1 390.47 A 43.39 43.39 0 0 0 954.49 433.86" fill="#b3e3f0"/><rect x="954.49" y="347.09" width="86.77" height="86.77" fill="#80d0e6"/><path d="M 954.49 347.09 A 86.77 86.77 0 0 0 1041.26 433.85999999999996 L 1041.26 347.09" fill="#edf8fc"/><rect x="1041.26" y="347.09" width="86.77" height="86.77" fill="#73cce4"/><path d="M 1041.26 433.85999999999996 A 86.77 86.77 0 0 0 1128.03 347.09 L 1041.26 347.09" fill="#91d7ea"/><rect x="1128.0285714285715" y="347.0857142857143" width="86.77142857142857" height="86.77142857142857" fill="#ffffff"/><rect x="1128.03" y="347.09" width="43.39" height="43.39" fill="#caecf5"/><path d="M 1128.03 347.09 A 43.39 43.39 0 0 0 1171.42 390.47999999999996 L 1171.42 347.09" fill="#c5c9fd"/><rect x="1171.41" y="347.09" width="43.39" height="43.39" fill="#959cfb"/><path d="M 1171.41 347.09 A 43.39 43.39 0 0 1  1214.8000000000002 390.47999999999996 L 1171.41 347.09 A 43.39 43.39 0 0 0 1214.8000000000002 390.47999999999996" fill="#ade1ef"/><rect x="1128.03" y="390.47" width="43.39" height="43.39" fill="#e5e7fe"/><path d="M 1128.03 390.47 A 43.39 43.39 0 0 1 1171.42 433.86 L 1128.03 433.86" fill="#8bd5e9"/><rect x="1171.41" y="390.47" width="43.39" height="43.39" fill="#d7d9fd"/><path d="M 1171.41 390.47 A 43.39 43.39 0 0 0 1214.8000000000002 433.86 L 1214.8000000000002 390.47" fill="#8a92fa"/><rect x="1214.8" y="347.09" width="86.77" height="86.77" fill="#82d1e7"/><path d="M 1214.8 433.85999999999996 A 86.77 86.77 0 0 1  1301.57 347.09 L 1214.8 433.85999999999996 A 86.77 86.77 0 0 0 1301.57 347.09" fill="#6771f9"/><rect x="1301.57" y="347.09" width="86.77" height="86.77" fill="#ecf8fb"/><path d="M 1301.57 433.85999999999996 A 86.77 86.77 0 0 1  1388.34 347.09 L 1388.34 433.85999999999996" fill="#87d3e8"/><rect x="0" y="433.86" width="86.77" height="86.77" fill="#98d9eb"/><path d="M 0 433.86 A 86.77 86.77 0 0 1 86.77 520.63 L 0 520.63" fill="#727bf9"/><rect x="86.77" y="433.86" width="86.77" height="86.77" fill="#8e96fa"/><path d="M 86.77 433.86 A 86.77 86.77 0 0 1  173.54 520.63 L 86.77 433.86 A 86.77 86.77 0 0 0 173.54 520.63" fill="#fdfeff"/><rect x="173.54285714285714" y="433.8571428571429" width="86.77142857142857" height="86.77142857142857" fill="#ffffff"/><rect x="173.54" y="433.86" width="43.39" height="43.39" fill="#b1b6fc"/><path d="M 173.54 477.25 A 43.39 43.39 0 0 0 216.93 433.86 L 173.54 433.86" fill="#d1eef6"/><rect x="216.93" y="433.86" width="43.39" height="43.39" fill="#c7eaf4"/><path d="M 216.93 433.86 A 43.39 43.39 0 0 1  260.32 477.25 L 216.93 433.86 A 43.39 43.39 0 0 0 260.32 477.25" fill="#f8f8ff"/><rect x="173.54" y="477.24" width="43.39" height="43.39" fill="#87d3e8"/><path d="M 173.54 520.63 A 43.39 43.39 0 0 1  216.93 477.24 L 216.93 520.63" fill="#c7eaf4"/><rect x="216.93" y="477.24" width="43.39" height="43.39" fill="#6f78f9"/><path d="M 216.93 520.63 A 43.39 43.39 0 0 1  260.32 477.24 L 216.93 520.63 A 43.39 43.39 0 0 0 260.32 477.24" fill="#89d4e8"/><rect x="260.31" y="433.86" width="86.77" height="86.77" fill="#daf2f8"/><path d="M 260.31 520.63 A 86.77 86.77 0 0 0 347.08 433.86 L 260.31 433.86" fill="#6a74f9"/><rect x="347.09" y="433.86" width="86.77" height="86.77" fill="#ebedfe"/><path d="M 347.09 433.86 A 86.77 86.77 0 0 0 433.85999999999996 520.63 L 433.85999999999996 433.86" fill="#c0c4fc"/><rect x="433.8571428571429" y="433.8571428571429" width="86.77142857142857" height="86.77142857142857" fill="#ffffff"/><rect x="433.86" y="433.86" width="43.39" height="43.39" fill="#bbe6f2"/><path d="M 433.86 433.86 A 43.39 43.39 0 0 0 477.25 477.25 L 477.25 433.86" fill="#6cc9e3"/><rect x="477.24" y="433.86" width="43.39" height="43.39" fill="#f3f4ff"/><path d="M 477.24 477.25 A 43.39 43.39 0 0 1  520.63 433.86 L 520.63 477.25" fill="#b5bafc"/><rect x="433.86" y="477.24" width="43.39" height="43.39" fill="#a2dded"/><path d="M 433.86 520.63 A 43.39 43.39 0 0 0 477.25 477.24 L 433.86 477.24" fill="#96d8eb"/><rect x="477.24" y="477.24" width="43.39" height="43.39" fill="#96d9eb"/><path d="M 477.24 520.63 A 43.39 43.39 0 0 0 520.63 477.24 L 477.24 477.24" fill="#e8f6fa"/><rect x="520.6285714285714" y="433.8571428571429" width="86.77142857142857" height="86.77142857142857" fill="#ffffff"/><rect x="520.63" y="433.86" width="43.39" height="43.39" fill="#6d77f9"/><path d="M 520.63 433.86 A 43.39 43.39 0 0 0 564.02 477.25 L 564.02 433.86" fill="#c3e9f3"/><rect x="564.01" y="433.86" width="43.39" height="43.39" fill="#6670f9"/><path d="M 564.01 433.86 A 43.39 43.39 0 0 1 607.4 477.25 L 564.01 477.25" fill="#ced1fd"/><rect x="520.63" y="477.24" width="43.39" height="43.39" fill="#afb4fc"/><path d="M 520.63 520.63 A 43.39 43.39 0 0 0 564.02 477.24 L 520.63 477.24" fill="#77cde5"/><rect x="564.01" y="477.24" width="43.39" height="43.39" fill="#79cee5"/><path d="M 564.01 520.63 A 43.39 43.39 0 0 0 607.4 477.24 L 564.01 477.24" fill="#bbc0fc"/><rect x="607.4" y="433.8571428571429" width="86.77142857142857" height="86.77142857142857" fill="#ffffff"/><rect x="607.4" y="433.86" width="43.39" height="43.39" fill="#b1e3f0"/><path d="M 607.4 477.25 A 43.39 43.39 0 0 1  650.79 433.86 L 650.79 477.25" fill="#eff0fe"/><rect x="650.79" y="433.86" width="43.39" height="43.39" fill="#868efa"/><path d="M 650.79 433.86 A 43.39 43.39 0 0 1  694.18 477.25 L 650.79 433.86 A 43.39 43.39 0 0 0 694.18 477.25" fill="#eceefe"/><rect x="607.4" y="477.24" width="43.39" height="43.39" fill="#c8ccfd"/><path d="M 607.4 520.63 A 43.39 43.39 0 0 1  650.79 477.24 L 650.79 520.63" fill="#bae6f2"/><rect x="650.79" y="477.24" width="43.39" height="43.39" fill="#96d8eb"/><path d="M 650.79 477.24 A 43.39 43.39 0 0 0 694.18 520.63 L 694.18 477.24" fill="#e8f7fb"/><rect x="694.1714285714286" y="433.8571428571429" width="86.77142857142857" height="86.77142857142857" fill="#ffffff"/><rect x="694.17" y="433.86" width="43.39" height="43.39" fill="#e3f5fa"/><path d="M 694.17 477.25 A 43.39 43.39 0 0 1  737.56 433.86 L 694.17 477.25 A 43.39 43.39 0 0 0 737.56 433.86" fill="#c8ebf4"/><rect x="737.56" y="433.86" width="43.39" height="43.39" fill="#aaaffb"/><path d="M 737.56 477.25 A 43.39 43.39 0 0 0 780.9499999999999 433.86 L 737.56 433.86" fill="#d0d3fd"/><rect x="694.17" y="477.24" width="43.39" height="43.39" fill="#c8cbfd"/><path d="M 694.17 520.63 A 43.39 43.39 0 0 1  737.56 477.24 L 694.17 520.63 A 43.39 43.39 0 0 0 737.56 477.24" fill="#cbecf5"/><rect x="737.56" y="477.24" width="43.39" height="43.39" fill="#ecf8fb"/><path d="M 737.56 520.63 A 43.39 43.39 0 0 0 780.9499999999999 477.24 L 737.56 477.24" fill="#6cc9e3"/><rect x="780.9428571428572" y="433.8571428571429" width="86.77142857142857" height="86.77142857142857" fill="#ffffff"/><rect x="780.94" y="433.86" width="43.39" height="43.39" fill="#eef9fc"/><path d="M 780.94 433.86 A 43.39 43.39 0 0 1 824.33 477.25 L 780.94 477.25" fill="#a1a7fb"/><rect x="824.33" y="433.86" width="43.39" height="43.39" fill="#e0f4f9"/><path d="M 824.33 433.86 A 43.39 43.39 0 0 0 867.72 477.25 L 867.72 433.86" fill="#d6f0f7"/><rect x="780.94" y="477.24" width="43.39" height="43.39" fill="#ace1ef"/><path d="M 780.94 520.63 A 43.39 43.39 0 0 0 824.33 477.24 L 780.94 477.24" fill="#edf8fb"/><rect x="824.33" y="477.24" width="43.39" height="43.39" fill="#b2e3f0"/><path d="M 824.33 477.24 A 43.39 43.39 0 0 1 867.72 520.63 L 824.33 520.63" fill="#c4e9f4"/><rect x="867.71" y="433.86" width="86.77" height="86.77" fill="#77cde5"/><path d="M 867.71 433.86 A 86.77 86.77 0 0 1  954.48 520.63 L 867.71 433.86 A 86.77 86.77 0 0 0 954.48 520.63" fill="#95d8ea"/><rect x="954.4857142857143" y="433.8571428571429" width="86.77142857142857" height="86.77142857142857" fill="#ffffff"/><rect x="954.49" y="433.86" width="43.39" height="43.39" fill="#a0dced"/><path d="M 954.49 477.25 A 43.39 43.39 0 0 1  997.88 433.86 L 954.49 477.25 A 43.39 43.39 0 0 0 997.88 433.86" fill="#def3f9"/><rect x="997.87" y="433.86" width="43.39" height="43.39" fill="#858dfa"/><path d="M 997.87 433.86 A 43.39 43.39 0 0 0 1041.26 477.25 L 1041.26 433.86" fill="#a5aafb"/><rect x="954.49" y="477.24" width="43.39" height="43.39" fill="#a3a9fb"/><path d="M 954.49 477.24 A 43.39 43.39 0 0 1  997.88 520.63 L 954.49 477.24 A 43.39 43.39 0 0 0 997.88 520.63" fill="#dcf2f8"/><rect x="997.87" y="477.24" width="43.39" height="43.39" fill="#e8f7fb"/><path d="M 997.87 477.24 A 43.39 43.39 0 0 0 1041.26 520.63 L 1041.26 477.24" fill="#6dcae3"/><rect x="1041.26" y="433.86" width="86.77" height="86.77" fill="#dfe1fe"/><path d="M 1041.26 433.86 A 86.77 86.77 0 0 1 1128.03 520.63 L 1041.26 520.63" fill="#7ed0e6"/><rect x="1128.03" y="433.86" width="86.77" height="86.77" fill="#e0f4f9"/><path d="M 1128.03 433.86 A 86.77 86.77 0 0 1 1214.8 520.63 L 1128.03 520.63" fill="#8d95fa"/><rect x="1214.8" y="433.86" width="86.77" height="86.77" fill="#bae6f2"/><path d="M 1214.8 520.63 A 86.77 86.77 0 0 1  1301.57 433.86 L 1214.8 520.63 A 86.77 86.77 0 0 0 1301.57 433.86" fill="#a4aafb"/><rect x="1301.5714285714287" y="433.8571428571429" width="86.77142857142857" height="86.77142857142857" fill="#ffffff"/><rect x="1301.57" y="433.86" width="43.39" height="43.39" fill="#e8f7fb"/><path d="M 1301.57 477.25 A 43.39 43.39 0 0 1  1344.96 433.86 L 1301.57 477.25 A 43.39 43.39 0 0 0 1344.96 433.86" fill="#a9affb"/><rect x="1344.96" y="433.86" width="43.39" height="43.39" fill="#636df9"/><path d="M 1344.96 433.86 A 43.39 43.39 0 0 1  1388.3500000000001 477.25 L 1344.96 433.86 A 43.39 43.39 0 0 0 1388.3500000000001 477.25" fill="#939afb"/><rect x="1301.57" y="477.24" width="43.39" height="43.39" fill="#b1b6fc"/><path d="M 1301.57 477.24 A 43.39 43.39 0 0 0 1344.96 520.63 L 1344.96 477.24" fill="#a5abfb"/><rect x="1344.96" y="477.24" width="43.39" height="43.39" fill="#9bdaec"/><path d="M 1344.96 477.24 A 43.39 43.39 0 0 1 1388.3500000000001 520.63 L 1344.96 520.63" fill="#dcf2f8"/><rect x="0" y="520.6285714285714" width="86.77142857142857" height="86.77142857142857" fill="#ffffff"/><rect x="0" y="520.63" width="43.39" height="43.39" fill="#daf1f8"/><path d="M 0 564.02 A 43.39 43.39 0 0 1  43.39 520.63 L 0 564.02 A 43.39 43.39 0 0 0 43.39 520.63" fill="#6e77f9"/><rect x="43.39" y="520.63" width="43.39" height="43.39" fill="#fcfefe"/><path d="M 43.39 564.02 A 43.39 43.39 0 0 0 86.78 520.63 L 43.39 520.63" fill="#6dc9e3"/><rect x="0" y="564.01" width="43.39" height="43.39" fill="#99daeb"/><path d="M 0 607.4 A 43.39 43.39 0 0 0 43.39 564.01 L 0 564.01" fill="#96d9eb"/><rect x="43.39" y="564.01" width="43.39" height="43.39" fill="#767ff9"/><path d="M 43.39 607.4 A 43.39 43.39 0 0 1  86.78 564.01 L 43.39 607.4 A 43.39 43.39 0 0 0 86.78 564.01" fill="#848cfa"/><rect x="86.77" y="520.63" width="86.77" height="86.77" fill="#bee7f2"/><path d="M 86.77 520.63 A 86.77 86.77 0 0 0 173.54 607.4 L 173.54 520.63" fill="#7982f9"/><rect x="173.54" y="520.63" width="86.77" height="86.77" fill="#a6acfb"/><path d="M 173.54 607.4 A 86.77 86.77 0 0 1  260.31 520.63 L 260.31 607.4" fill="#c5eaf4"/><rect x="260.31" y="520.63" width="86.77" height="86.77" fill="#c7eaf4"/><path d="M 260.31 520.63 A 86.77 86.77 0 0 1 347.08 607.4 L 260.31 607.4" fill="#6872f9"/><rect x="347.09" y="520.63" width="86.77" height="86.77" fill="#8e95fa"/><path d="M 347.09 520.63 A 86.77 86.77 0 0 1  433.85999999999996 607.4 L 347.09 520.63 A 86.77 86.77 0 0 0 433.85999999999996 607.4" fill="#c3e9f3"/><rect x="433.8571428571429" y="520.6285714285714" width="86.77142857142857" height="86.77142857142857" fill="#ffffff"/><rect x="433.86" y="520.63" width="43.39" height="43.39" fill="#82d1e7"/><path d="M 433.86 520.63 A 43.39 43.39 0 0 1  477.25 564.02 L 433.86 520.63 A 43.39 43.39 0 0 0 477.25 564.02" fill="#d6f0f7"/><rect x="477.24" y="520.63" width="43.39" height="43.39" fill="#f5fbfd"/><path d="M 477.24 520.63 A 43.39 43.39 0 0 0 520.63 564.02 L 520.63 520.63" fill="#7c85fa"/><rect x="433.86" y="564.01" width="43.39" height="43.39" fill="#969dfb"/><path d="M 433.86 607.4 A 43.39 43.39 0 0 0 477.25 564.01 L 433.86 564.01" fill="#737cf9"/><rect x="477.24" y="564.01" width="43.39" height="43.39" fill="#9adaec"/><path d="M 477.24 564.01 A 43.39 43.39 0 0 0 520.63 607.4 L 520.63 564.01" fill="#a5deee"/><rect x="520.63" y="520.63" width="86.77" height="86.77" fill="#6c76f9"/><path d="M 520.63 520.63 A 86.77 86.77 0 0 0 607.4 607.4 L 607.4 520.63" fill="#dbddfe"/><rect x="607.4" y="520.63" width="86.77" height="86.77" fill="#a6deee"/><path d="M 607.4 607.4 A 86.77 86.77 0 0 1  694.17 520.63 L 694.17 607.4" fill="#95d8eb"/><rect x="694.1714285714286" y="520.6285714285714" width="86.77142857142857" height="86.77142857142857" fill="#ffffff"/><rect x="694.17" y="520.63" width="43.39" height="43.39" fill="#82d1e7"/><path d="M 694.17 564.02 A 43.39 43.39 0 0 1  737.56 520.63 L 694.17 564.02 A 43.39 43.39 0 0 0 737.56 520.63" fill="#a7adfb"/><rect x="737.56" y="520.63" width="43.39" height="43.39" fill="#a6deee"/><path d="M 737.56 564.02 A 43.39 43.39 0 0 0 780.9499999999999 520.63 L 737.56 520.63" fill="#949bfb"/><rect x="694.17" y="564.01" width="43.39" height="43.39" fill="#d2eff6"/><path d="M 694.17 607.4 A 43.39 43.39 0 0 0 737.56 564.01 L 694.17 564.01" fill="#8cd5e9"/><rect x="737.56" y="564.01" width="43.39" height="43.39" fill="#90d6ea"/><path d="M 737.56 607.4 A 43.39 43.39 0 0 1  780.9499999999999 564.01 L 737.56 607.4 A 43.39 43.39 0 0 0 780.9499999999999 564.01" fill="#9097fa"/><rect x="780.94" y="520.63" width="86.77" height="86.77" fill="#d2eff6"/><path d="M 780.94 607.4 A 86.77 86.77 0 0 1  867.71 520.63 L 780.94 607.4 A 86.77 86.77 0 0 0 867.71 520.63" fill="#fcfefe"/><rect x="867.7142857142858" y="520.6285714285714" width="86.77142857142857" height="86.77142857142857" fill="#ffffff"/><rect x="867.71" y="520.63" width="43.39" height="43.39" fill="#c8cbfd"/><path d="M 867.71 520.63 A 43.39 43.39 0 0 1 911.1 564.02 L 867.71 564.02" fill="#7fd0e6"/><rect x="911.1" y="520.63" width="43.39" height="43.39" fill="#adb2fc"/><path d="M 911.1 520.63 A 43.39 43.39 0 0 1  954.49 564.02 L 911.1 520.63 A 43.39 43.39 0 0 0 954.49 564.02" fill="#d1d4fd"/><rect x="867.71" y="564.01" width="43.39" height="43.39" fill="#9299fa"/><path d="M 867.71 607.4 A 43.39 43.39 0 0 1  911.1 564.01 L 911.1 607.4" fill="#8dd5e9"/><rect x="911.1" y="564.01" width="43.39" height="43.39" fill="#afe2f0"/><path d="M 911.1 607.4 A 43.39 43.39 0 0 1  954.49 564.01 L 954.49 607.4" fill="#a0dced"/><rect x="954.49" y="520.63" width="86.77" height="86.77" fill="#a4deed"/><path d="M 954.49 607.4 A 86.77 86.77 0 0 0 1041.26 520.63 L 954.49 520.63" fill="#8e95fa"/><rect x="1041.2571428571428" y="520.6285714285714" width="86.77142857142857" height="86.77142857142857" fill="#ffffff"/><rect x="1041.26" y="520.63" width="43.39" height="43.39" fill="#bfe8f3"/><path d="M 1041.26 520.63 A 43.39 43.39 0 0 1  1084.65 564.02 L 1041.26 520.63 A 43.39 43.39 0 0 0 1084.65 564.02" fill="#afe2f0"/><rect x="1084.64" y="520.63" width="43.39" height="43.39" fill="#8d94fa"/><path d="M 1084.64 520.63 A 43.39 43.39 0 0 1 1128.0300000000002 564.02 L 1084.64 564.02" fill="#b1e3f0"/><rect x="1041.26" y="564.01" width="43.39" height="43.39" fill="#737cf9"/><path d="M 1041.26 607.4 A 43.39 43.39 0 0 0 1084.65 564.01 L 1041.26 564.01" fill="#82d1e7"/><rect x="1084.64" y="564.01" width="43.39" height="43.39" fill="#dcf2f8"/><path d="M 1084.64 564.01 A 43.39 43.39 0 0 1 1128.0300000000002 607.4 L 1084.64 607.4" fill="#8e95fa"/><rect x="1128.0285714285715" y="520.6285714285714" width="86.77142857142857" height="86.77142857142857" fill="#ffffff"/><rect x="1128.03" y="520.63" width="43.39" height="43.39" fill="#c4e9f4"/><path d="M 1128.03 520.63 A 43.39 43.39 0 0 0 1171.42 564.02 L 1171.42 520.63" fill="#e6e7fe"/><rect x="1171.41" y="520.63" width="43.39" height="43.39" fill="#9aa1fb"/><path d="M 1171.41 520.63 A 43.39 43.39 0 0 1  1214.8000000000002 564.02 L 1171.41 520.63 A 43.39 43.39 0 0 0 1214.8000000000002 564.02" fill="#8dd5e9"/><rect x="1128.03" y="564.01" width="43.39" height="43.39" fill="#606af8"/><path d="M 1128.03 564.01 A 43.39 43.39 0 0 0 1171.42 607.4 L 1171.42 564.01" fill="#bdc2fc"/><rect x="1171.41" y="564.01" width="43.39" height="43.39" fill="#f1f2fe"/><path d="M 1171.41 564.01 A 43.39 43.39 0 0 0 1214.8000000000002 607.4 L 1214.8000000000002 564.01" fill="#dde0fe"/><rect x="1214.8" y="520.63" width="86.77" height="86.77" fill="#bbe6f2"/><path d="M 1214.8 607.4 A 86.77 86.77 0 0 1  1301.57 520.63 L 1301.57 607.4" fill="#85d2e7"/><rect x="1301.5714285714287" y="520.6285714285714" width="86.77142857142857" height="86.77142857142857" fill="#ffffff"/><rect x="1301.57" y="520.63" width="43.39" height="43.39" fill="#cbecf5"/><path d="M 1301.57 520.63 A 43.39 43.39 0 0 0 1344.96 564.02 L 1344.96 520.63" fill="#cbcffd"/><rect x="1344.96" y="520.63" width="43.39" height="43.39" fill="#fafbff"/><path d="M 1344.96 564.02 A 43.39 43.39 0 0 1  1388.3500000000001 520.63 L 1388.3500000000001 564.02" fill="#a7adfb"/><rect x="1301.57" y="564.01" width="43.39" height="43.39" fill="#afb4fc"/><path d="M 1301.57 607.4 A 43.39 43.39 0 0 1  1344.96 564.01 L 1344.96 607.4" fill="#f4f4ff"/><rect x="1344.96" y="564.01" width="43.39" height="43.39" fill="#bee7f3"/><path d="M 1344.96 607.4 A 43.39 43.39 0 0 1  1388.3500000000001 564.01 L 1388.3500000000001 607.4" fill="#eef9fc"/></g></svg>